<svg xmlns="http://www.w3.org/2000/svg" xmlns:xlink="http://www.w3.org/1999/xlink" width="162.75" zoomAndPan="magnify" viewBox="0 0 162.75 35.25" height="35.25" preserveAspectRatio="xMidYMid meet" version="1.0"><defs><g><g id="id1"/><g id="id2"/></g><clipPath id="id3"><path d="M 1.574219 0 L 36.128906 0 L 36.128906 34.515625 L 1.574219 34.515625 Z M 1.574219 0 " clip-rule="nonzero"/></clipPath></defs><g clip-path="url(#id3)"><path fill="rgb(100%, 100%, 100%)" d="M 33.316406 11.027344 L 25.101562 11.027344 L 25.101562 2.828125 C 25.101562 1.261719 23.847656 0 22.285156 0 L 15.40625 0 C 13.851562 0 12.589844 1.261719 12.589844 2.828125 L 12.589844 11.03125 L 4.386719 11.03125 C 2.835938 11.027344 1.574219 12.292969 1.574219 13.84375 L 1.574219 20.722656 C 1.574219 22.277344 2.835938 23.539062 4.386719 23.539062 L 12.589844 23.539062 L 12.589844 31.742188 C 12.589844 33.304688 13.855469 34.558594 15.40625 34.558594 L 17.859375 34.558594 L 17.859375 27.59375 C 17.859375 27.59375 14.769531 19.34375 2.246094 13.605469 C 2.246094 13.605469 7.574219 14.9375 10.257812 16.453125 C 12.953125 17.96875 14.285156 19.148438 15.226562 19.917969 C 16.007812 20.542969 17.59375 21.625 18.84375 21.6875 C 20.097656 21.625 21.695312 20.542969 22.476562 19.917969 C 23.417969 19.148438 24.75 17.96875 27.433594 16.453125 C 30.128906 14.9375 35.457031 13.605469 35.457031 13.605469 C 29.203125 16.464844 25.292969 19.964844 22.960938 22.746094 C 20.613281 25.535156 19.84375 27.589844 19.84375 27.589844 L 19.84375 34.554688 L 22.289062 34.554688 C 23.851562 34.554688 25.101562 33.304688 25.101562 31.742188 L 25.101562 23.539062 L 33.316406 23.539062 C 34.867188 23.539062 36.132812 22.273438 36.132812 20.722656 L 36.132812 13.84375 C 36.128906 12.292969 34.867188 11.027344 33.316406 11.027344 Z M 18.84375 20.917969 C 17.703125 20.917969 16.777344 19.992188 16.777344 18.847656 C 16.777344 17.703125 17.703125 16.765625 18.84375 16.765625 C 19.988281 16.765625 20.925781 17.707031 20.925781 18.847656 C 20.925781 19.992188 19.988281 20.917969 18.84375 20.917969 Z M 18.84375 20.917969 " fill-opacity="1" fill-rule="nonzero"/></g><g fill="rgb(100%, 100%, 100%)" fill-opacity="1"><g transform="translate(46.777656, 18.625146)"><g><path d="M 8.015625 -2.375 L 2.890625 -2.375 L 1.890625 0 L -0.078125 0 L 4.53125 -10.234375 L 6.40625 -10.234375 L 11.03125 0 L 9.03125 0 Z M 7.390625 -3.859375 L 5.453125 -8.34375 L 3.546875 -3.859375 Z M 7.390625 -3.859375 "/></g></g></g><g fill="rgb(100%, 100%, 100%)" fill-opacity="1"><g transform="translate(57.728842, 18.625146)"><g><path d="M 10.46875 -10.234375 L 10.46875 0 L 8.90625 0 L 3.265625 -6.9375 L 3.265625 0 L 1.375 0 L 1.375 -10.234375 L 2.9375 -10.234375 L 8.578125 -3.3125 L 8.578125 -10.234375 Z M 10.46875 -10.234375 "/></g></g></g><g fill="rgb(100%, 100%, 100%)" fill-opacity="1"><g transform="translate(69.571913, 18.625146)"><g><path d="M 3.453125 -8.625 L 0.0625 -8.625 L 0.0625 -10.234375 L 8.75 -10.234375 L 8.75 -8.625 L 5.359375 -8.625 L 5.359375 0 L 3.453125 0 Z M 3.453125 -8.625 "/></g></g></g><g fill="rgb(100%, 100%, 100%)" fill-opacity="1"><g transform="translate(78.373799, 18.625146)"><g><path d="M 8.078125 0 L 5.984375 -3 C 5.890625 -2.988281 5.757812 -2.984375 5.59375 -2.984375 L 3.28125 -2.984375 L 3.28125 0 L 1.375 0 L 1.375 -10.234375 L 5.59375 -10.234375 C 6.476562 -10.234375 7.25 -10.085938 7.90625 -9.796875 C 8.5625 -9.503906 9.0625 -9.082031 9.40625 -8.53125 C 9.757812 -7.988281 9.9375 -7.34375 9.9375 -6.59375 C 9.9375 -5.820312 9.75 -5.15625 9.375 -4.59375 C 9 -4.039062 8.460938 -3.628906 7.765625 -3.359375 L 10.125 0 Z M 8.03125 -6.59375 C 8.03125 -7.25 7.8125 -7.75 7.375 -8.09375 C 6.945312 -8.445312 6.320312 -8.625 5.5 -8.625 L 3.28125 -8.625 L 3.28125 -4.546875 L 5.5 -4.546875 C 6.320312 -4.546875 6.945312 -4.722656 7.375 -5.078125 C 7.8125 -5.429688 8.03125 -5.9375 8.03125 -6.59375 Z M 8.03125 -6.59375 "/></g></g></g><g fill="rgb(100%, 100%, 100%)" fill-opacity="1"><g transform="translate(89.061805, 18.625146)"><g><path d="M 1.375 -10.234375 L 3.28125 -10.234375 L 3.28125 0 L 1.375 0 Z M 1.375 -10.234375 "/></g></g></g><g fill="rgb(100%, 100%, 100%)" fill-opacity="1"><g transform="translate(93.725928, 18.625146)"><g/></g></g><g fill="rgb(100%, 100%, 100%)" fill-opacity="1"><g transform="translate(97.761348, 18.625146)"><g><path d="M 10.78125 0 L 10.765625 -6.78125 L 7.40625 -1.171875 L 6.546875 -1.171875 L 3.1875 -6.703125 L 3.1875 0 L 1.375 0 L 1.375 -10.234375 L 2.9375 -10.234375 L 7 -3.453125 L 11 -10.234375 L 12.5625 -10.234375 L 12.578125 0 Z M 10.78125 0 "/></g></g></g><g fill="rgb(100%, 100%, 100%)" fill-opacity="1"><g transform="translate(111.724476, 18.625146)"><g><path d="M 9.046875 -1.59375 L 9.046875 0 L 1.375 0 L 1.375 -10.234375 L 8.84375 -10.234375 L 8.84375 -8.640625 L 3.28125 -8.640625 L 3.28125 -5.984375 L 8.21875 -5.984375 L 8.21875 -4.421875 L 3.28125 -4.421875 L 3.28125 -1.59375 Z M 9.046875 -1.59375 "/></g></g></g><g fill="rgb(100%, 100%, 100%)" fill-opacity="1"><g transform="translate(121.520597, 18.625146)"><g><path d="M 1.375 -10.234375 L 5.84375 -10.234375 C 6.9375 -10.234375 7.90625 -10.019531 8.75 -9.59375 C 9.601562 -9.175781 10.265625 -8.578125 10.734375 -7.796875 C 11.203125 -7.023438 11.4375 -6.132812 11.4375 -5.125 C 11.4375 -4.101562 11.203125 -3.203125 10.734375 -2.421875 C 10.265625 -1.648438 9.601562 -1.050781 8.75 -0.625 C 7.90625 -0.207031 6.9375 0 5.84375 0 L 1.375 0 Z M 5.765625 -1.609375 C 6.515625 -1.609375 7.171875 -1.75 7.734375 -2.03125 C 8.304688 -2.320312 8.742188 -2.734375 9.046875 -3.265625 C 9.359375 -3.796875 9.515625 -4.414062 9.515625 -5.125 C 9.515625 -5.820312 9.359375 -6.4375 9.046875 -6.96875 C 8.742188 -7.5 8.304688 -7.90625 7.734375 -8.1875 C 7.171875 -8.476562 6.515625 -8.625 5.765625 -8.625 L 3.28125 -8.625 L 3.28125 -1.609375 Z M 5.765625 -1.609375 "/></g></g></g><g fill="rgb(100%, 100%, 100%)" fill-opacity="1"><g transform="translate(133.597605, 18.625146)"><g><path d="M 1.375 -10.234375 L 3.28125 -10.234375 L 3.28125 0 L 1.375 0 Z M 1.375 -10.234375 "/></g></g></g><g fill="rgb(100%, 100%, 100%)" fill-opacity="1"><g transform="translate(138.261729, 18.625146)"><g><path d="M 4.90625 -4.28125 L 3.28125 -2.625 L 3.28125 0 L 1.375 0 L 1.375 -10.234375 L 3.28125 -10.234375 L 3.28125 -4.984375 L 8.34375 -10.234375 L 10.46875 -10.234375 L 6.171875 -5.65625 L 10.734375 0 L 8.515625 0 Z M 4.90625 -4.28125 "/></g></g></g><g fill="rgb(100%, 100%, 100%)" fill-opacity="1"><g transform="translate(148.920492, 18.625146)"><g><path d="M 8.015625 -2.375 L 2.890625 -2.375 L 1.890625 0 L -0.078125 0 L 4.53125 -10.234375 L 6.40625 -10.234375 L 11.03125 0 L 9.03125 0 Z M 7.390625 -3.859375 L 5.453125 -8.34375 L 3.546875 -3.859375 Z M 7.390625 -3.859375 "/></g></g></g><g fill="rgb(100%, 100%, 100%)" fill-opacity="1"><g transform="translate(51.078407, 28.022837)"><g><path d="M 4.71875 -2.359375 C 4.71875 -1.609375 4.523438 -1.015625 4.140625 -0.578125 C 3.765625 -0.148438 3.238281 0.0625 2.5625 0.0625 C 1.875 0.0625 1.34375 -0.144531 0.96875 -0.5625 C 0.59375 -0.988281 0.40625 -1.585938 0.40625 -2.359375 C 0.40625 -3.117188 0.59375 -3.707031 0.96875 -4.125 C 1.34375 -4.550781 1.878906 -4.765625 2.578125 -4.765625 C 3.242188 -4.765625 3.765625 -4.550781 4.140625 -4.125 C 4.523438 -3.695312 4.71875 -3.109375 4.71875 -2.359375 Z M 0.984375 -2.359375 C 0.984375 -1.722656 1.117188 -1.238281 1.390625 -0.90625 C 1.660156 -0.582031 2.050781 -0.421875 2.5625 -0.421875 C 3.082031 -0.421875 3.472656 -0.582031 3.734375 -0.90625 C 4.003906 -1.226562 4.140625 -1.710938 4.140625 -2.359375 C 4.140625 -2.984375 4.003906 -3.457031 3.734375 -3.78125 C 3.472656 -4.113281 3.085938 -4.28125 2.578125 -4.28125 C 2.054688 -4.28125 1.660156 -4.113281 1.390625 -3.78125 C 1.117188 -3.457031 0.984375 -2.984375 0.984375 -2.359375 Z M 0.984375 -2.359375 "/></g></g></g><g fill="rgb(100%, 100%, 100%)" fill-opacity="1"><g transform="translate(57.922569, 28.022837)"><g><path d="M 4.3125 0 L 3.6875 0 L 1.125 -3.9375 L 1.09375 -3.9375 C 1.132812 -3.476562 1.15625 -3.054688 1.15625 -2.671875 L 1.15625 0 L 0.640625 0 L 0.640625 -4.703125 L 1.265625 -4.703125 L 3.828125 -0.765625 L 3.84375 -0.765625 C 3.84375 -0.828125 3.832031 -1.015625 3.8125 -1.328125 C 3.800781 -1.640625 3.796875 -1.863281 3.796875 -2 L 3.796875 -4.703125 L 4.3125 -4.703125 Z M 4.3125 0 "/></g></g></g><g fill="rgb(100%, 100%, 100%)" fill-opacity="1"><g transform="translate(64.602822, 28.022837)"><g><path d="M 0.640625 0 L 0.640625 -4.703125 L 1.1875 -4.703125 L 1.1875 -0.5 L 3.265625 -0.5 L 3.265625 0 Z M 0.640625 0 "/></g></g></g><g fill="rgb(100%, 100%, 100%)" fill-opacity="1"><g transform="translate(69.737186, 28.022837)"><g><path d="M 0.640625 0 L 0.640625 -4.703125 L 1.1875 -4.703125 L 1.1875 0 Z M 0.640625 0 "/></g></g></g><g fill="rgb(100%, 100%, 100%)" fill-opacity="1"><g transform="translate(73.290307, 28.022837)"><g><path d="M 4.3125 0 L 3.6875 0 L 1.125 -3.9375 L 1.09375 -3.9375 C 1.132812 -3.476562 1.15625 -3.054688 1.15625 -2.671875 L 1.15625 0 L 0.640625 0 L 0.640625 -4.703125 L 1.265625 -4.703125 L 3.828125 -0.765625 L 3.84375 -0.765625 C 3.84375 -0.828125 3.832031 -1.015625 3.8125 -1.328125 C 3.800781 -1.640625 3.796875 -1.863281 3.796875 -2 L 3.796875 -4.703125 L 4.3125 -4.703125 Z M 4.3125 0 "/></g></g></g><g fill="rgb(100%, 100%, 100%)" fill-opacity="1"><g transform="translate(79.970559, 28.022837)"><g><path d="M 3.265625 0 L 0.640625 0 L 0.640625 -4.703125 L 3.265625 -4.703125 L 3.265625 -4.203125 L 1.1875 -4.203125 L 1.1875 -2.703125 L 3.140625 -2.703125 L 3.140625 -2.21875 L 1.1875 -2.21875 L 1.1875 -0.484375 L 3.265625 -0.484375 Z M 3.265625 0 "/></g></g></g><g fill="rgb(100%, 100%, 100%)" fill-opacity="1"><g transform="translate(85.349178, 28.022837)"><g/></g></g><g fill="rgb(100%, 100%, 100%)" fill-opacity="1"><g transform="translate(88.776956, 28.022837)"><g><path d="M 4.71875 -2.359375 C 4.71875 -1.753906 4.597656 -1.25 4.359375 -0.84375 C 4.117188 -0.445312 3.773438 -0.179688 3.328125 -0.046875 L 4.453125 1.125 L 3.65625 1.125 L 2.75 0.0625 L 2.5625 0.0625 C 1.875 0.0625 1.34375 -0.144531 0.96875 -0.5625 C 0.59375 -0.988281 0.40625 -1.585938 0.40625 -2.359375 C 0.40625 -3.117188 0.59375 -3.707031 0.96875 -4.125 C 1.34375 -4.550781 1.878906 -4.765625 2.578125 -4.765625 C 3.242188 -4.765625 3.765625 -4.550781 4.140625 -4.125 C 4.523438 -3.695312 4.71875 -3.109375 4.71875 -2.359375 Z M 0.984375 -2.359375 C 0.984375 -1.722656 1.117188 -1.238281 1.390625 -0.90625 C 1.660156 -0.582031 2.050781 -0.421875 2.5625 -0.421875 C 3.082031 -0.421875 3.472656 -0.582031 3.734375 -0.90625 C 4.003906 -1.226562 4.140625 -1.710938 4.140625 -2.359375 C 4.140625 -2.984375 4.003906 -3.457031 3.734375 -3.78125 C 3.472656 -4.113281 3.085938 -4.28125 2.578125 -4.28125 C 2.054688 -4.28125 1.660156 -4.113281 1.390625 -3.78125 C 1.117188 -3.457031 0.984375 -2.984375 0.984375 -2.359375 Z M 0.984375 -2.359375 "/></g></g></g><g fill="rgb(100%, 100%, 100%)" fill-opacity="1"><g transform="translate(95.621117, 28.022837)"><g><path d="M 4.1875 -4.703125 L 4.1875 -1.65625 C 4.1875 -1.125 4.023438 -0.703125 3.703125 -0.390625 C 3.378906 -0.0859375 2.9375 0.0625 2.375 0.0625 C 1.8125 0.0625 1.375 -0.0859375 1.0625 -0.390625 C 0.75 -0.703125 0.59375 -1.128906 0.59375 -1.671875 L 0.59375 -4.703125 L 1.140625 -4.703125 L 1.140625 -1.625 C 1.140625 -1.238281 1.242188 -0.941406 1.453125 -0.734375 C 1.671875 -0.523438 1.988281 -0.421875 2.40625 -0.421875 C 2.800781 -0.421875 3.101562 -0.523438 3.3125 -0.734375 C 3.53125 -0.941406 3.640625 -1.242188 3.640625 -1.640625 L 3.640625 -4.703125 Z M 4.1875 -4.703125 "/></g></g></g><g fill="rgb(100%, 100%, 100%)" fill-opacity="1"><g transform="translate(102.131032, 28.022837)"><g><path d="M 3.265625 0 L 0.640625 0 L 0.640625 -4.703125 L 3.265625 -4.703125 L 3.265625 -4.203125 L 1.1875 -4.203125 L 1.1875 -2.703125 L 3.140625 -2.703125 L 3.140625 -2.21875 L 1.1875 -2.21875 L 1.1875 -0.484375 L 3.265625 -0.484375 Z M 3.265625 0 "/></g></g></g><g fill="rgb(100%, 100%, 100%)" fill-opacity="1"><g transform="translate(107.509651, 28.022837)"><g><path d="M 4.1875 -4.703125 L 4.1875 -1.65625 C 4.1875 -1.125 4.023438 -0.703125 3.703125 -0.390625 C 3.378906 -0.0859375 2.9375 0.0625 2.375 0.0625 C 1.8125 0.0625 1.375 -0.0859375 1.0625 -0.390625 C 0.75 -0.703125 0.59375 -1.128906 0.59375 -1.671875 L 0.59375 -4.703125 L 1.140625 -4.703125 L 1.140625 -1.625 C 1.140625 -1.238281 1.242188 -0.941406 1.453125 -0.734375 C 1.671875 -0.523438 1.988281 -0.421875 2.40625 -0.421875 C 2.800781 -0.421875 3.101562 -0.523438 3.3125 -0.734375 C 3.53125 -0.941406 3.640625 -1.242188 3.640625 -1.640625 L 3.640625 -4.703125 Z M 4.1875 -4.703125 "/></g></g></g><g fill="rgb(100%, 100%, 100%)" fill-opacity="1"><g transform="translate(114.019566, 28.022837)"><g><path d="M 3.265625 0 L 0.640625 0 L 0.640625 -4.703125 L 3.265625 -4.703125 L 3.265625 -4.203125 L 1.1875 -4.203125 L 1.1875 -2.703125 L 3.140625 -2.703125 L 3.140625 -2.21875 L 1.1875 -2.21875 L 1.1875 -0.484375 L 3.265625 -0.484375 Z M 3.265625 0 "/></g></g></g><g fill="rgb(100%, 100%, 100%)" fill-opacity="1"><g transform="translate(119.398185, 28.022837)"><g/></g></g><g fill="rgb(100%, 100%, 100%)" fill-opacity="1"><g transform="translate(122.825963, 28.022837)"><g><path d="M 3.296875 -1.25 C 3.296875 -0.832031 3.144531 -0.507812 2.84375 -0.28125 C 2.539062 -0.0507812 2.132812 0.0625 1.625 0.0625 C 1.070312 0.0625 0.644531 -0.0078125 0.34375 -0.15625 L 0.34375 -0.671875 C 0.53125 -0.597656 0.738281 -0.535156 0.96875 -0.484375 C 1.195312 -0.441406 1.421875 -0.421875 1.640625 -0.421875 C 2.003906 -0.421875 2.28125 -0.488281 2.46875 -0.625 C 2.65625 -0.757812 2.75 -0.953125 2.75 -1.203125 C 2.75 -1.359375 2.710938 -1.488281 2.640625 -1.59375 C 2.578125 -1.695312 2.46875 -1.789062 2.3125 -1.875 C 2.164062 -1.96875 1.9375 -2.070312 1.625 -2.1875 C 1.1875 -2.34375 0.875 -2.523438 0.6875 -2.734375 C 0.5 -2.953125 0.40625 -3.234375 0.40625 -3.578125 C 0.40625 -3.941406 0.539062 -4.226562 0.8125 -4.4375 C 1.082031 -4.65625 1.441406 -4.765625 1.890625 -4.765625 C 2.359375 -4.765625 2.785156 -4.675781 3.171875 -4.5 L 3 -4.03125 C 2.613281 -4.195312 2.238281 -4.28125 1.875 -4.28125 C 1.582031 -4.28125 1.351562 -4.21875 1.1875 -4.09375 C 1.03125 -3.96875 0.953125 -3.796875 0.953125 -3.578125 C 0.953125 -3.410156 0.984375 -3.273438 1.046875 -3.171875 C 1.109375 -3.066406 1.207031 -2.96875 1.34375 -2.875 C 1.488281 -2.789062 1.707031 -2.695312 2 -2.59375 C 2.488281 -2.414062 2.828125 -2.226562 3.015625 -2.03125 C 3.203125 -1.832031 3.296875 -1.570312 3.296875 -1.25 Z M 3.296875 -1.25 "/></g></g></g><g fill="rgb(100%, 100%, 100%)" fill-opacity="1"><g transform="translate(128.156378, 28.022837)"><g><path d="M 1.84375 -2.34375 L 3.09375 -4.703125 L 3.6875 -4.703125 L 2.109375 -1.828125 L 2.109375 0 L 1.5625 0 L 1.5625 -1.796875 L 0 -4.703125 L 0.59375 -4.703125 Z M 1.84375 -2.34375 "/></g></g></g><g fill="rgb(100%, 100%, 100%)" fill-opacity="1"><g transform="translate(133.560713, 28.022837)"><g><path d="M 3.296875 -1.25 C 3.296875 -0.832031 3.144531 -0.507812 2.84375 -0.28125 C 2.539062 -0.0507812 2.132812 0.0625 1.625 0.0625 C 1.070312 0.0625 0.644531 -0.0078125 0.34375 -0.15625 L 0.34375 -0.671875 C 0.53125 -0.597656 0.738281 -0.535156 0.96875 -0.484375 C 1.195312 -0.441406 1.421875 -0.421875 1.640625 -0.421875 C 2.003906 -0.421875 2.28125 -0.488281 2.46875 -0.625 C 2.65625 -0.757812 2.75 -0.953125 2.75 -1.203125 C 2.75 -1.359375 2.710938 -1.488281 2.640625 -1.59375 C 2.578125 -1.695312 2.46875 -1.789062 2.3125 -1.875 C 2.164062 -1.96875 1.9375 -2.070312 1.625 -2.1875 C 1.1875 -2.34375 0.875 -2.523438 0.6875 -2.734375 C 0.5 -2.953125 0.40625 -3.234375 0.40625 -3.578125 C 0.40625 -3.941406 0.539062 -4.226562 0.8125 -4.4375 C 1.082031 -4.65625 1.441406 -4.765625 1.890625 -4.765625 C 2.359375 -4.765625 2.785156 -4.675781 3.171875 -4.5 L 3 -4.03125 C 2.613281 -4.195312 2.238281 -4.28125 1.875 -4.28125 C 1.582031 -4.28125 1.351562 -4.21875 1.1875 -4.09375 C 1.03125 -3.96875 0.953125 -3.796875 0.953125 -3.578125 C 0.953125 -3.410156 0.984375 -3.273438 1.046875 -3.171875 C 1.109375 -3.066406 1.207031 -2.96875 1.34375 -2.875 C 1.488281 -2.789062 1.707031 -2.695312 2 -2.59375 C 2.488281 -2.414062 2.828125 -2.226562 3.015625 -2.03125 C 3.203125 -1.832031 3.296875 -1.570312 3.296875 -1.25 Z M 3.296875 -1.25 "/></g></g></g><g fill="rgb(100%, 100%, 100%)" fill-opacity="1"><g transform="translate(138.891128, 28.022837)"><g><path d="M 2.09375 0 L 1.546875 0 L 1.546875 -4.203125 L 0.0625 -4.203125 L 0.0625 -4.703125 L 3.578125 -4.703125 L 3.578125 -4.203125 L 2.09375 -4.203125 Z M 2.09375 0 "/></g></g></g><g fill="rgb(100%, 100%, 100%)" fill-opacity="1"><g transform="translate(144.250468, 28.022837)"><g><path d="M 3.265625 0 L 0.640625 0 L 0.640625 -4.703125 L 3.265625 -4.703125 L 3.265625 -4.203125 L 1.1875 -4.203125 L 1.1875 -2.703125 L 3.140625 -2.703125 L 3.140625 -2.21875 L 1.1875 -2.21875 L 1.1875 -0.484375 L 3.265625 -0.484375 Z M 3.265625 0 "/></g></g></g><g fill="rgb(100%, 100%, 100%)" fill-opacity="1"><g transform="translate(149.629092, 28.022837)"><g><path d="M 2.71875 0 L 1.125 -4.15625 L 1.109375 -4.15625 C 1.140625 -3.832031 1.15625 -3.441406 1.15625 -2.984375 L 1.15625 0 L 0.640625 0 L 0.640625 -4.703125 L 1.46875 -4.703125 L 2.953125 -0.828125 L 2.984375 -0.828125 L 4.484375 -4.703125 L 5.296875 -4.703125 L 5.296875 0 L 4.75 0 L 4.75 -3.03125 C 4.75 -3.375 4.765625 -3.75 4.796875 -4.15625 L 4.765625 -4.15625 L 3.15625 0 Z M 2.71875 0 "/></g></g></g></svg>